<?xml version="1.0" encoding="UTF-8"?> <svg xmlns="http://www.w3.org/2000/svg" width="165" height="165" viewBox="0 0 165 165" fill="none"><g clip-path="url(#clip0_807_1764)"><path d="M154.355 129.565V51.6663L160.457 57.7686L164.22 54.0056L153.575 43.3604C152.534 42.3198 150.852 42.3198 149.812 43.3604L139.167 54.0056L142.93 57.7686L149.032 51.6663V127.955C148.159 127.83 147.276 127.742 146.371 127.742C136.098 127.742 127.742 136.101 127.742 146.371C127.742 156.641 136.098 165 146.371 165C156.643 165 165 156.641 165 146.371C165 138.959 160.638 132.564 154.355 129.565ZM146.371 159.677C139.034 159.677 133.064 153.708 133.064 146.371C133.064 139.034 139.034 133.065 146.371 133.065C153.708 133.065 159.677 139.034 159.677 146.371C159.677 153.708 153.708 159.677 146.371 159.677Z" fill="#1D1D3F"></path><path d="M10.6452 35.4351V113.334L4.54282 107.231L0.779758 110.994L11.4249 121.64C11.9439 122.159 12.6252 122.419 13.3065 122.419C13.9877 122.419 14.669 122.159 15.188 121.64L25.8331 110.994L22.0701 107.231L15.9677 113.334V37.0452C16.8406 37.1702 17.7242 37.2581 18.629 37.2581C28.9016 37.2581 37.2581 28.9016 37.2581 18.629C37.2581 8.35645 28.9016 0 18.629 0C8.35645 0 0 8.35645 0 18.629C0 26.0407 4.36186 32.4385 10.6452 35.4351ZM18.629 5.32258C25.9662 5.32258 31.9355 11.2919 31.9355 18.629C31.9355 25.9662 25.9662 31.9355 18.629 31.9355C11.2919 31.9355 5.32258 25.9662 5.32258 18.629C5.32258 11.2919 11.2919 5.32258 18.629 5.32258Z" fill="#1D1D3F"></path><path d="M74.516 119.758C74.516 121.23 75.7083 122.419 77.1773 122.419H87.8225C89.2915 122.419 90.4838 121.23 90.4838 119.758V116.136C93.9914 115.311 97.302 113.967 100.362 112.112L101.909 113.656C102.949 114.696 104.631 114.696 105.672 113.656L113.656 105.672C114.156 105.174 114.435 104.498 114.435 103.79C114.435 103.082 114.156 102.406 113.656 101.909L112.112 100.365C113.964 97.3021 115.314 93.9915 116.136 90.4839H119.758C121.227 90.4839 122.419 89.2943 122.419 87.8226V77.1774C122.419 75.7084 121.227 74.5161 119.758 74.5161H116.133C115.311 71.0405 113.956 67.7405 112.088 64.6587L113.656 63.0912C114.696 62.0506 114.696 60.3687 113.656 59.3281L105.672 51.3443C104.631 50.3037 102.949 50.3037 101.909 51.3443L100.341 52.9118C97.2594 51.0436 93.9594 49.689 90.4838 48.8666V45.2419C90.4838 43.7729 89.2915 42.5807 87.8225 42.5807H77.1773C75.7083 42.5807 74.516 43.7729 74.516 45.2419V48.864C71.0085 49.6863 67.6978 51.0329 64.6347 52.8878L63.0911 51.3443C62.0506 50.3037 60.3686 50.3037 59.3281 51.3443L51.3442 59.3282C50.3036 60.3687 50.3036 62.0507 51.3442 63.0912L52.8877 64.6348C51.0355 67.6979 49.6862 71.0086 48.8639 74.5161H45.2419C43.7728 74.5161 42.5806 75.7084 42.5806 77.1774V87.8226C42.5806 89.2943 43.7728 90.4839 45.2419 90.4839H48.8665C49.6889 93.9569 51.0435 97.2569 52.9117 100.339L51.3442 101.909C50.3036 102.949 50.3036 104.631 51.3442 105.672L59.3281 113.656C60.3686 114.696 62.0506 114.696 63.0911 113.656L64.6586 112.088C67.7404 113.956 71.0404 115.311 74.516 116.133V119.758ZM65.8216 106.5C64.7651 105.762 63.328 105.89 62.4205 106.8L61.2096 108.011L56.9888 103.79L58.1997 102.579C59.1098 101.669 59.2376 100.235 58.5031 99.1783C56.0068 95.5909 54.3807 91.6229 53.6675 87.3808C53.4519 86.1007 52.3422 85.1613 51.0435 85.1613H47.9031V79.8387H51.0435C52.3422 79.8387 53.4519 78.8993 53.6675 77.6192C54.3887 73.3186 56.0094 69.3399 58.4765 65.7978C59.211 64.7412 59.0859 63.3068 58.1731 62.3966L56.9888 61.2097L61.2096 56.9889L62.3939 58.1732C63.3067 59.0833 64.7385 59.2137 65.795 58.4765C69.3398 56.0095 73.3158 54.3888 77.6164 53.6676C78.8992 53.452 79.8386 52.3423 79.8386 51.0436V47.9032H85.1612V51.0436C85.1612 52.3423 86.1006 53.452 87.3807 53.6676C91.6255 54.3808 95.5935 56.0069 99.1782 58.5032C100.237 59.2377 101.672 59.1126 102.579 58.1998L103.79 56.9889L108.011 61.2097L106.8 62.4206C105.89 63.3307 105.762 64.7652 106.497 65.8217C108.993 69.4065 110.619 73.3744 111.332 77.6192C111.548 78.8993 112.658 79.8387 113.956 79.8387H117.097V85.1613H113.956C112.658 85.1613 111.548 86.1007 111.332 87.3808C110.611 91.6815 108.99 95.6601 106.523 99.2023C105.786 100.259 105.914 101.693 106.824 102.603L108.008 103.79L103.79 108.011L102.603 106.827C101.696 105.919 100.259 105.784 99.1995 106.526C95.66 108.993 91.684 110.609 87.3807 111.335C86.1006 111.548 85.1612 112.658 85.1612 113.956V117.097H79.8386V113.956C79.8386 112.658 78.8992 111.548 77.6191 111.332C73.377 110.619 69.409 108.993 65.8216 106.5Z" fill="#1D1D3F"></path><path d="M106.452 82.5C106.452 69.2947 95.7053 58.5484 82.5 58.5484C69.2946 58.5484 58.5483 69.2947 58.5483 82.5C58.5483 95.708 69.2946 106.452 82.5 106.452C95.7053 106.452 106.452 95.708 106.452 82.5ZM63.8709 82.5C63.8709 72.2274 72.2274 63.871 82.5 63.871C92.7725 63.871 101.129 72.2274 101.129 82.5C101.129 92.7699 92.7725 101.129 82.5 101.129C72.2274 101.129 63.8709 92.7699 63.8709 82.5Z" fill="#1D1D3F"></path><path d="M82.5 143.71C86.1779 143.71 89.2517 141.197 90.1751 137.807C117.786 134.023 138.387 110.622 138.387 82.5C138.387 56.9809 121.147 34.7219 96.4664 28.3747L95.1411 33.5296C117.469 39.2727 133.065 59.4106 133.065 82.5C133.065 107.83 114.595 128.924 89.7839 132.487C88.5358 129.698 85.7468 127.742 82.5 127.742C78.0982 127.742 74.5161 131.324 74.5161 135.726C74.5161 140.128 78.0982 143.71 82.5 143.71ZM82.5 133.065C83.9664 133.065 85.1613 134.257 85.1613 135.726C85.1613 137.195 83.9664 138.387 82.5 138.387C81.0336 138.387 79.8387 137.195 79.8387 135.726C79.8387 134.257 81.0336 133.065 82.5 133.065Z" fill="#1D1D3F"></path><path d="M31.9354 82.5C31.9354 57.1486 50.3994 36.0738 75.2159 32.513C76.4614 35.302 79.2531 37.2581 82.4999 37.2581C86.9017 37.2581 90.4838 33.676 90.4838 29.2742C90.4838 24.8724 86.9017 21.2903 82.4999 21.2903C78.822 21.2903 75.7455 23.8052 74.8247 27.1957C47.2032 30.9774 26.6128 54.3542 26.6128 82.5C26.6128 108.016 43.85 130.273 68.5281 136.628L69.8561 131.47C47.5279 125.725 31.9354 105.587 31.9354 82.5ZM82.4999 26.6129C83.9663 26.6129 85.1612 27.8078 85.1612 29.2742C85.1612 30.7406 83.9663 31.9355 82.4999 31.9355C81.0335 31.9355 79.8386 30.7406 79.8386 29.2742C79.8386 27.8078 81.0335 26.6129 82.4999 26.6129Z" fill="#1D1D3F"></path><path d="M54.0057 25.8331L57.7687 22.0701L51.6664 15.9677H127.955C127.83 16.8406 127.742 17.7242 127.742 18.629C127.742 28.9016 136.098 37.2581 146.371 37.2581C156.644 37.2581 165 28.9016 165 18.629C165 8.35645 156.644 0 146.371 0C138.959 0 132.562 4.36186 129.565 10.6452H51.6664L57.7687 4.54282L54.0057 0.779758L43.3605 11.4249C42.3199 12.4655 42.3199 14.1474 43.3605 15.188L54.0057 25.8331ZM146.371 5.32258C153.708 5.32258 159.678 11.2919 159.678 18.629C159.678 25.9662 153.708 31.9355 146.371 31.9355C139.034 31.9355 133.065 25.9662 133.065 18.629C133.065 11.2919 139.034 5.32258 146.371 5.32258Z" fill="#1D1D3F"></path><path d="M110.994 139.167L107.231 142.93L113.334 149.032H37.0452C37.1702 148.159 37.2581 147.276 37.2581 146.371C37.2581 136.101 28.9016 127.742 18.629 127.742C8.35645 127.742 0 136.101 0 146.371C0 156.641 8.35645 165 18.629 165C26.0407 165 32.4385 160.638 35.4351 154.355H113.334L107.231 160.457L110.994 164.22L121.64 153.575C122.68 152.535 122.68 150.853 121.64 149.812L110.994 139.167ZM18.629 159.677C11.2919 159.677 5.32258 153.708 5.32258 146.371C5.32258 139.034 11.2919 133.065 18.629 133.065C25.9662 133.065 31.9355 139.034 31.9355 146.371C31.9355 153.708 25.9662 159.677 18.629 159.677Z" fill="#1D1D3F"></path></g><defs><clipPath id="clip0_807_1764"><rect width="165" height="165" fill="white"></rect></clipPath></defs></svg> 