<?xml version="1.0" encoding="UTF-8"?> <svg xmlns="http://www.w3.org/2000/svg" width="165" height="165" viewBox="0 0 165 165" fill="none"><g clip-path="url(#clip0_807_1773)"><path d="M71.4105 36.6007L67.3121 40.6991L71.0752 44.4622L75.1736 40.3638C76.5681 41.2899 78.1436 41.9659 79.8388 42.3119V47.9032H85.1614V42.3119C86.8567 41.9659 88.4321 41.2899 89.8267 40.3638L93.925 44.4622L97.6881 40.6991L93.5897 36.6007C94.5159 35.2062 95.1918 33.6307 95.5378 31.9355H101.129V26.6129H95.5378C95.1918 24.9177 94.5159 23.3422 93.5897 21.9477L97.6881 17.8493L93.925 14.0862L89.8267 18.1846C88.4321 17.2585 86.8567 16.5825 85.1614 16.2365V10.6452H79.8388V16.2365C78.1436 16.5825 76.5681 17.2585 75.1736 18.1846L71.0752 14.0862L67.3121 17.8493L71.4105 21.9477C70.4844 23.3422 69.8084 24.9177 69.4625 26.6129H63.8711V31.9355H69.4625C69.8084 33.6307 70.4844 35.2062 71.4105 36.6007ZM82.5001 21.2903C86.9019 21.2903 90.484 24.8724 90.484 29.2742C90.484 33.676 86.9019 37.2581 82.5001 37.2581C78.0984 37.2581 74.5163 33.676 74.5163 29.2742C74.5163 24.8724 78.0984 21.2903 82.5001 21.2903Z" fill="#1D1D3F"></path><path d="M157.016 63.871C155.787 63.871 154.637 64.1717 153.596 64.672L144.529 55.605C145.663 54.2238 146.371 52.486 146.371 50.5645C146.371 48.3769 145.485 46.3916 144.053 44.9492L156.165 15.8826C156.449 15.9119 156.723 15.9677 157.016 15.9677C161.418 15.9677 165 12.3856 165 7.98387C165 3.5821 161.418 0 157.016 0C152.614 0 149.032 3.5821 149.032 7.98387C149.032 8.34581 149.093 8.69177 149.139 9.0404L133.195 18.15C131.766 16.806 129.855 15.9677 127.742 15.9677C124.277 15.9677 121.35 18.2006 120.248 21.2903H112.573C110.798 16.2765 107.806 11.715 103.756 8.10097C96.9774 2.05185 87.8652 -0.827661 78.7556 0.215565C66.6653 1.59145 56.4087 10.081 52.4061 21.2903H44.7523C43.6505 18.2006 40.7231 15.9677 37.2581 15.9677C35.145 15.9677 33.2342 16.806 31.8051 18.15L15.8613 9.0404C15.9065 8.69177 15.9677 8.34581 15.9677 7.98387C15.9677 3.5821 12.3856 2.66129e-07 7.98387 2.66129e-07C3.5821 2.66129e-07 0 3.5821 0 7.98387C0 12.3856 3.5821 15.9677 7.98387 15.9677C8.27661 15.9677 8.55073 15.9119 8.83548 15.8826L20.947 44.9492C19.5152 46.3916 18.629 48.3769 18.629 50.5645C18.629 52.486 19.3369 54.2238 20.4706 55.605L11.4036 64.672C10.3631 64.1717 9.21339 63.871 7.98387 63.871C3.5821 63.871 0 67.4531 0 71.8548C0 76.2566 3.5821 79.8387 7.98387 79.8387C12.3856 79.8387 15.9677 76.2566 15.9677 71.8548C15.9677 70.6253 15.667 69.4756 15.1667 68.4351L25.1944 58.4073C25.6575 58.4872 26.1285 58.5484 26.6129 58.5484C28.6568 58.5484 30.5064 57.7527 31.9195 56.4832L47.2246 67.4158L32.1803 100.014C31.7998 100.839 31.8663 101.8 32.356 102.563C32.843 103.327 33.6893 103.79 34.5968 103.79H47.9032V127.742C47.9032 128.54 48.2598 129.293 48.8773 129.799C49.492 130.302 50.301 130.499 51.0861 130.35L75.3943 125.488L81.2572 143.082L54.8226 154.576C53.8539 154.996 53.2258 155.957 53.2258 157.016V162.339C53.2258 163.81 54.4181 165 55.8871 165H130.403C131.872 165 133.065 163.81 133.065 162.339V149.032C133.065 148.479 132.892 147.936 132.57 147.486L119.263 128.857C118.914 128.37 118.425 128.043 117.887 127.875L114.712 119.942C129.155 93.2729 119.838 73.9147 115.58 67.2907L132.987 56.4114C134.414 57.7261 136.301 58.5484 138.387 58.5484C138.871 58.5484 139.343 58.4872 139.803 58.4047L149.831 68.4324C149.333 69.4756 149.032 70.6253 149.032 71.8548C149.032 76.2566 152.614 79.8387 157.016 79.8387C161.418 79.8387 165 76.2566 165 71.8548C165 67.4531 161.418 63.871 157.016 63.871ZM137.421 42.6791L131.545 30.9295C134.023 29.5723 135.726 26.9695 135.726 23.9516C135.726 23.5897 135.665 23.2437 135.619 22.8951L151.183 14.001L139.239 42.6658C138.954 42.6365 138.68 42.5806 138.387 42.5806C138.057 42.5806 137.74 42.6392 137.421 42.6791ZM157.016 5.32258C158.482 5.32258 159.677 6.51484 159.677 7.98387C159.677 9.4529 158.482 10.6452 157.016 10.6452C155.55 10.6452 154.355 9.4529 154.355 7.98387C154.355 6.51484 155.55 5.32258 157.016 5.32258ZM127.742 21.2903C129.208 21.2903 130.403 22.4826 130.403 23.9516C130.403 25.4206 129.208 26.6129 127.742 26.6129C126.276 26.6129 125.081 25.4206 125.081 23.9516C125.081 22.4826 126.276 21.2903 127.742 21.2903ZM56.1399 28.2177C57.734 16.4069 67.501 6.85814 79.3623 5.50355C87.0748 4.63863 94.4811 6.95927 100.214 12.0743C105.869 17.1227 109.113 24.3588 109.113 31.9355C109.113 39.3552 105.973 46.4927 100.496 51.5119C95.1385 56.4273 91.8145 62.5962 90.8272 69.1936H85.1613V53.2258H79.8387V69.1936H74.1329C73.087 62.5802 69.7365 56.3049 64.5177 51.5252C57.9975 45.5533 54.945 37.0585 56.1399 28.2177ZM79.8387 85.1613H85.1613V87.8226C85.1613 89.2916 83.9664 90.4839 82.5 90.4839C81.0336 90.4839 79.8387 89.2916 79.8387 87.8226V85.1613ZM74.5161 79.8387V74.5161H90.4839V79.8387H74.5161ZM37.2581 21.2903C38.7244 21.2903 39.9194 22.4826 39.9194 23.9516C39.9194 25.4206 38.7244 26.6129 37.2581 26.6129C35.7917 26.6129 34.5968 25.4206 34.5968 23.9516C34.5968 22.4826 35.7917 21.2903 37.2581 21.2903ZM27.579 42.6791C27.2596 42.6392 26.9429 42.5806 26.6129 42.5806C26.3202 42.5806 26.046 42.6365 25.7613 42.6658L13.8174 14.001L29.3806 22.8951C29.3354 23.2437 29.2742 23.5897 29.2742 23.9516C29.2742 26.9695 30.9774 29.5723 33.4551 30.9269L27.579 42.6791ZM5.32258 7.98387C5.32258 6.51484 6.5175 5.32258 7.98387 5.32258C9.45024 5.32258 10.6452 6.51484 10.6452 7.98387C10.6452 9.4529 9.45024 10.6452 7.98387 10.6452C6.5175 10.6452 5.32258 9.4529 5.32258 7.98387ZM7.98387 74.5161C6.5175 74.5161 5.32258 73.3239 5.32258 71.8548C5.32258 70.3858 6.5175 69.1936 7.98387 69.1936C9.45024 69.1936 10.6452 70.3858 10.6452 71.8548C10.6452 73.3239 9.45024 74.5161 7.98387 74.5161ZM26.6129 53.2258C25.1465 53.2258 23.9516 52.0336 23.9516 50.5645C23.9516 49.0955 25.1465 47.9032 26.6129 47.9032C28.0793 47.9032 29.2742 49.0955 29.2742 50.5645C29.2742 52.0336 28.0793 53.2258 26.6129 53.2258ZM127.742 159.677H58.5484V158.759L116.184 133.701L127.742 149.884V159.677ZM109.454 118.454C109.06 119.157 109.004 120 109.302 120.745L112.759 129.387L86.1593 140.953L79.7003 121.578C79.2772 120.306 77.9678 119.532 76.6531 119.811L53.2258 124.495V101.129C53.2258 99.6573 52.0336 98.4677 50.5645 98.4677H38.7564L52.2677 69.1936H58.5484V63.871H51.4161L34.4744 51.7701C34.5356 51.3736 34.5968 50.977 34.5968 50.5645C34.5968 48.4169 33.7345 46.4741 32.3506 45.037L39.0039 31.7279C41.6865 31.1238 43.8394 29.1651 44.7496 26.6129H51.0223C50.9717 26.911 50.9025 27.2037 50.8626 27.5044C49.4308 38.0964 53.0981 48.2865 60.9223 55.4507C65.0286 59.2137 67.7431 64.0652 68.7438 69.1936H63.871V74.5161H69.1936V82.5C69.1936 83.9717 70.3858 85.1613 71.8548 85.1613H74.5161V87.8226C74.5161 92.2244 78.0982 95.8065 82.5 95.8065C86.9018 95.8065 90.4839 92.2244 90.4839 87.8226V85.1613H93.1452C94.6142 85.1613 95.8065 83.9717 95.8065 82.5V74.5161H101.129V69.1936H96.2163C97.1717 64.0945 99.8676 59.3122 104.094 55.4373C110.664 49.4069 114.435 40.8428 114.435 31.9355C114.435 30.1365 114.241 28.364 113.943 26.6129H120.248C121.158 29.1677 123.311 31.1265 125.993 31.7279L132.647 45.037C131.265 46.4741 130.403 48.4169 130.403 50.5645C130.403 50.9477 130.464 51.3123 130.515 51.6823L111.013 63.871H106.452V69.1936H110.441C113.424 73.4942 124.256 92.1419 109.454 118.454ZM135.726 50.5645C135.726 49.0955 136.921 47.9032 138.387 47.9032C139.853 47.9032 141.048 49.0955 141.048 50.5645C141.048 52.0336 139.853 53.2258 138.387 53.2258C136.921 53.2258 135.726 52.0336 135.726 50.5645ZM157.016 74.5161C155.55 74.5161 154.355 73.3239 154.355 71.8548C154.355 70.3858 155.55 69.1936 157.016 69.1936C158.482 69.1936 159.677 70.3858 159.677 71.8548C159.677 73.3239 158.482 74.5161 157.016 74.5161Z" fill="#1D1D3F"></path></g><defs><clipPath id="clip0_807_1773"><rect width="165" height="165" fill="white"></rect></clipPath></defs></svg> 