<?xml version="1.0" encoding="UTF-8"?> <svg xmlns="http://www.w3.org/2000/svg" width="165" height="165" viewBox="0 0 165 165" fill="none"><g clip-path="url(#clip0_807_1776)"><path d="M93.1452 45.2419H133.065C134.536 45.2419 135.726 44.0523 135.726 42.5806C135.726 19.1027 116.623 0 93.1452 0C91.6735 0 90.4839 1.1896 90.4839 2.66129V42.5806C90.4839 44.0523 91.6735 45.2419 93.1452 45.2419ZM95.8065 5.41573C114.233 6.72242 129.003 21.4926 130.31 39.9194H95.8065V5.41573Z" fill="#1D1D3F"></path><path d="M154.355 90.4839C150.674 90.4839 147.428 92.3601 145.517 95.2077L124.277 86.1034C131.423 77.0417 135.726 65.6381 135.726 53.2258C135.726 51.7541 134.536 50.5645 133.065 50.5645H85.1613V2.66129C85.1613 1.1896 83.9717 0 82.5 0C53.1513 0 29.2742 23.8771 29.2742 53.2258C29.2742 68.4031 35.6932 82.0848 45.9206 91.7879L16.6597 108.328C14.9458 107.149 12.878 106.452 10.6452 106.452C4.77435 106.452 0 111.226 0 117.097C0 122.968 4.77436 127.742 10.6452 127.742C12.5586 127.742 14.331 127.194 15.8852 126.308L36.1749 148.851C35.1929 150.461 34.5968 152.332 34.5968 154.355C34.5968 160.226 39.3711 165 45.2419 165C51.1127 165 55.8871 160.226 55.8871 154.355C55.8871 148.484 51.1127 143.71 45.2419 143.71C43.3285 143.71 41.556 144.258 40.0019 145.144L19.7122 122.6C20.6942 120.99 21.2903 119.119 21.2903 117.097C21.2903 115.423 20.8672 113.861 20.1779 112.45L50.2372 95.4605C55.8019 99.7212 62.2156 102.893 69.1936 104.7V111.774H63.871V117.097H69.1936V122.419H63.871V127.742H69.1936V165H74.5161V127.742H90.4839V165H95.8065V127.742H101.129V122.419H95.8065V117.097H101.129V111.774H95.8065V104.7C105.371 102.225 113.906 97.1903 120.599 90.3162L143.798 100.259C143.774 100.552 143.71 100.831 143.71 101.129C143.71 107 148.484 111.774 154.355 111.774C160.226 111.774 165 107 165 101.129C165 95.2582 160.226 90.4839 154.355 90.4839ZM5.32258 117.097C5.32258 114.161 7.70976 111.774 10.6452 111.774C13.5806 111.774 15.9677 114.161 15.9677 117.097C15.9677 120.032 13.5806 122.419 10.6452 122.419C7.70976 122.419 5.32258 120.032 5.32258 117.097ZM50.5645 154.355C50.5645 157.29 48.1773 159.677 45.2419 159.677C42.3065 159.677 39.9194 157.29 39.9194 154.355C39.9194 151.419 42.3065 149.032 45.2419 149.032C48.1773 149.032 50.5645 151.419 50.5645 154.355ZM119.197 83.9265L114.05 81.7202C120.32 74.7849 124.33 65.7977 124.948 55.8871H130.331C129.746 66.5323 125.64 76.2406 119.197 83.9265ZM119.622 55.8871C118.968 65.0712 115.008 73.3558 108.881 79.5061L93.0574 72.7251C93.0813 72.4323 93.1452 72.1529 93.1452 71.8548C93.1452 65.984 88.3708 61.2097 82.5 61.2097C76.6292 61.2097 71.8548 65.984 71.8548 71.8548C71.8548 73.5288 72.278 75.091 72.9673 76.5015L60.7439 83.4102C51.3736 76.6372 45.2419 65.646 45.2419 53.2258C45.2419 43.9086 48.7016 35.4031 54.3755 28.8644L80.6158 55.1047C81.0975 55.5864 81.7628 55.8871 82.5 55.8871H119.622ZM77.1774 71.8548C77.1774 68.9194 79.5646 66.5323 82.5 66.5323C85.4354 66.5323 87.8226 68.9194 87.8226 71.8548C87.8226 74.7902 85.4354 77.1774 82.5 77.1774C79.5646 77.1774 77.1774 74.7902 77.1774 71.8548ZM76.4855 80.6238C78.1994 81.8027 80.2672 82.5 82.5 82.5C86.1806 82.5 89.4273 80.6238 91.3381 77.7762L104.336 83.3463C98.1936 87.8146 90.6622 90.4839 82.5 90.4839C76.56 90.4839 70.9606 89.0494 65.9707 86.5665L76.4855 80.6238ZM79.8387 46.8015L58.1386 25.1013C64.0466 19.9756 71.5701 16.6916 79.8387 16.1035V46.8015ZM34.5968 53.2258C34.5968 27.704 54.6576 6.78097 79.8387 5.39444V10.7782C57.601 12.1648 39.9194 30.6448 39.9194 53.2258C39.9194 66.5482 46.0802 78.4522 55.6902 86.2657L50.7907 89.0361C40.8854 80.2512 34.5968 67.4744 34.5968 53.2258ZM90.4839 122.419H74.5161V117.097H90.4839V122.419ZM90.4839 111.774H74.5161V105.786C77.1269 106.183 79.7802 106.452 82.5 106.452C85.2198 106.452 87.8732 106.183 90.4839 105.786V111.774ZM82.5 101.129C72.3951 101.129 63.0273 97.9648 55.291 92.6049L60.539 89.6376C66.9607 93.5257 74.4602 95.8065 82.5 95.8065C92.9456 95.8065 102.513 92.0088 109.93 85.7441L115.338 88.0621C106.755 96.1551 95.1997 101.129 82.5 101.129ZM154.355 106.452C151.419 106.452 149.032 104.064 149.032 101.129C149.032 98.1936 151.419 95.8065 154.355 95.8065C157.29 95.8065 159.677 98.1936 159.677 101.129C159.677 104.064 157.29 106.452 154.355 106.452Z" fill="#1D1D3F"></path></g><defs><clipPath id="clip0_807_1776"><rect width="165" height="165" fill="white"></rect></clipPath></defs></svg> 